<mxfile host="app.diagrams.net" modified="2023-03-15T21:35:17.898Z" agent="5.0 (X11; Linux x86_64) AppleWebKit/537.36 (KHTML, like Gecko) Chrome/109.0.0.0 Safari/537.36" etag="YFJhxBSdm9F2mGr1k7_a" version="21.0.6" type="github">
  <diagram name="Page-1" id="0Cf3hwRxvx3X-OucF8Xf">
    <mxGraphModel dx="1360" dy="775" grid="1" gridSize="10" guides="1" tooltips="1" connect="1" arrows="1" fold="1" page="1" pageScale="1" pageWidth="827" pageHeight="1169" math="0" shadow="0">
      <root>
        <mxCell id="0" />
        <mxCell id="1" parent="0" />
        <mxCell id="fzm851p_M25pBIHe-S2H-3" style="edgeStyle=orthogonalEdgeStyle;rounded=0;orthogonalLoop=1;jettySize=auto;html=1;exitX=0.5;exitY=1;exitDx=0;exitDy=0;entryX=0;entryY=0.5;entryDx=0;entryDy=0;" edge="1" parent="1" source="fzm851p_M25pBIHe-S2H-1" target="fzm851p_M25pBIHe-S2H-2">
          <mxGeometry relative="1" as="geometry" />
        </mxCell>
        <mxCell id="fzm851p_M25pBIHe-S2H-30" style="edgeStyle=orthogonalEdgeStyle;rounded=0;orthogonalLoop=1;jettySize=auto;html=1;exitX=0.5;exitY=1;exitDx=0;exitDy=0;entryX=0;entryY=0.5;entryDx=0;entryDy=0;" edge="1" parent="1" source="fzm851p_M25pBIHe-S2H-1" target="fzm851p_M25pBIHe-S2H-29">
          <mxGeometry relative="1" as="geometry" />
        </mxCell>
        <mxCell id="fzm851p_M25pBIHe-S2H-41" style="edgeStyle=orthogonalEdgeStyle;rounded=0;orthogonalLoop=1;jettySize=auto;html=1;exitX=0.25;exitY=1;exitDx=0;exitDy=0;entryX=0;entryY=0.5;entryDx=0;entryDy=0;" edge="1" parent="1" source="fzm851p_M25pBIHe-S2H-1" target="fzm851p_M25pBIHe-S2H-39">
          <mxGeometry relative="1" as="geometry" />
        </mxCell>
        <mxCell id="fzm851p_M25pBIHe-S2H-42" style="edgeStyle=orthogonalEdgeStyle;rounded=0;orthogonalLoop=1;jettySize=auto;html=1;exitX=0.25;exitY=1;exitDx=0;exitDy=0;entryX=0;entryY=0.5;entryDx=0;entryDy=0;" edge="1" parent="1" source="fzm851p_M25pBIHe-S2H-1" target="fzm851p_M25pBIHe-S2H-27">
          <mxGeometry relative="1" as="geometry" />
        </mxCell>
        <mxCell id="fzm851p_M25pBIHe-S2H-1" value="Aula" style="rounded=0;whiteSpace=wrap;html=1;" vertex="1" parent="1">
          <mxGeometry x="80" y="120" width="120" height="60" as="geometry" />
        </mxCell>
        <mxCell id="fzm851p_M25pBIHe-S2H-12" style="edgeStyle=orthogonalEdgeStyle;rounded=0;orthogonalLoop=1;jettySize=auto;html=1;exitX=1;exitY=0.5;exitDx=0;exitDy=0;entryX=0;entryY=0.5;entryDx=0;entryDy=0;" edge="1" parent="1" source="fzm851p_M25pBIHe-S2H-2" target="fzm851p_M25pBIHe-S2H-5">
          <mxGeometry relative="1" as="geometry" />
        </mxCell>
        <mxCell id="fzm851p_M25pBIHe-S2H-13" style="edgeStyle=orthogonalEdgeStyle;rounded=0;orthogonalLoop=1;jettySize=auto;html=1;exitX=1;exitY=0.5;exitDx=0;exitDy=0;entryX=0;entryY=0.5;entryDx=0;entryDy=0;" edge="1" parent="1" source="fzm851p_M25pBIHe-S2H-2" target="fzm851p_M25pBIHe-S2H-6">
          <mxGeometry relative="1" as="geometry" />
        </mxCell>
        <mxCell id="fzm851p_M25pBIHe-S2H-14" style="edgeStyle=orthogonalEdgeStyle;rounded=0;orthogonalLoop=1;jettySize=auto;html=1;exitX=1;exitY=0.5;exitDx=0;exitDy=0;" edge="1" parent="1" source="fzm851p_M25pBIHe-S2H-2" target="fzm851p_M25pBIHe-S2H-7">
          <mxGeometry relative="1" as="geometry" />
        </mxCell>
        <mxCell id="fzm851p_M25pBIHe-S2H-15" style="edgeStyle=orthogonalEdgeStyle;rounded=0;orthogonalLoop=1;jettySize=auto;html=1;exitX=0.75;exitY=1;exitDx=0;exitDy=0;entryX=0;entryY=0.5;entryDx=0;entryDy=0;" edge="1" parent="1" source="fzm851p_M25pBIHe-S2H-2" target="fzm851p_M25pBIHe-S2H-8">
          <mxGeometry relative="1" as="geometry" />
        </mxCell>
        <mxCell id="fzm851p_M25pBIHe-S2H-16" style="edgeStyle=orthogonalEdgeStyle;rounded=0;orthogonalLoop=1;jettySize=auto;html=1;exitX=0.75;exitY=1;exitDx=0;exitDy=0;entryX=0;entryY=0.5;entryDx=0;entryDy=0;" edge="1" parent="1" source="fzm851p_M25pBIHe-S2H-2" target="fzm851p_M25pBIHe-S2H-9">
          <mxGeometry relative="1" as="geometry" />
        </mxCell>
        <mxCell id="fzm851p_M25pBIHe-S2H-2" value="Messages" style="rounded=0;whiteSpace=wrap;html=1;" vertex="1" parent="1">
          <mxGeometry x="520" y="170" width="120" height="60" as="geometry" />
        </mxCell>
        <mxCell id="fzm851p_M25pBIHe-S2H-5" value="kid 1" style="rounded=0;whiteSpace=wrap;html=1;" vertex="1" parent="1">
          <mxGeometry x="700" y="30" width="120" height="60" as="geometry" />
        </mxCell>
        <mxCell id="fzm851p_M25pBIHe-S2H-6" value="kid 2" style="rounded=0;whiteSpace=wrap;html=1;" vertex="1" parent="1">
          <mxGeometry x="700" y="100" width="120" height="60" as="geometry" />
        </mxCell>
        <mxCell id="fzm851p_M25pBIHe-S2H-7" value="kid 3" style="rounded=0;whiteSpace=wrap;html=1;" vertex="1" parent="1">
          <mxGeometry x="700" y="170" width="120" height="60" as="geometry" />
        </mxCell>
        <mxCell id="fzm851p_M25pBIHe-S2H-21" style="edgeStyle=orthogonalEdgeStyle;rounded=0;orthogonalLoop=1;jettySize=auto;html=1;exitX=1;exitY=0.5;exitDx=0;exitDy=0;" edge="1" parent="1" source="fzm851p_M25pBIHe-S2H-8">
          <mxGeometry relative="1" as="geometry">
            <mxPoint x="890" y="340" as="targetPoint" />
            <Array as="points" />
          </mxGeometry>
        </mxCell>
        <mxCell id="fzm851p_M25pBIHe-S2H-8" value="Other parents" style="rounded=0;whiteSpace=wrap;html=1;" vertex="1" parent="1">
          <mxGeometry x="700" y="310" width="120" height="60" as="geometry" />
        </mxCell>
        <mxCell id="fzm851p_M25pBIHe-S2H-9" value="Teachers" style="rounded=0;whiteSpace=wrap;html=1;" vertex="1" parent="1">
          <mxGeometry x="700" y="380" width="120" height="60" as="geometry" />
        </mxCell>
        <mxCell id="fzm851p_M25pBIHe-S2H-11" style="edgeStyle=orthogonalEdgeStyle;rounded=0;orthogonalLoop=1;jettySize=auto;html=1;exitX=0.5;exitY=1;exitDx=0;exitDy=0;entryX=0.5;entryY=0;entryDx=0;entryDy=0;" edge="1" parent="1" source="fzm851p_M25pBIHe-S2H-10" target="fzm851p_M25pBIHe-S2H-1">
          <mxGeometry relative="1" as="geometry" />
        </mxCell>
        <mxCell id="fzm851p_M25pBIHe-S2H-43" style="edgeStyle=orthogonalEdgeStyle;rounded=0;orthogonalLoop=1;jettySize=auto;html=1;exitX=1;exitY=0.75;exitDx=0;exitDy=0;" edge="1" parent="1" source="fzm851p_M25pBIHe-S2H-10">
          <mxGeometry relative="1" as="geometry">
            <mxPoint x="360" y="65" as="targetPoint" />
          </mxGeometry>
        </mxCell>
        <mxCell id="fzm851p_M25pBIHe-S2H-10" value="" style="shape=actor;whiteSpace=wrap;html=1;" vertex="1" parent="1">
          <mxGeometry x="120" y="20" width="40" height="60" as="geometry" />
        </mxCell>
        <mxCell id="fzm851p_M25pBIHe-S2H-17" value="" style="shape=curlyBracket;whiteSpace=wrap;html=1;rounded=1;flipH=1;labelPosition=right;verticalLabelPosition=middle;align=left;verticalAlign=middle;" vertex="1" parent="1">
          <mxGeometry x="840" y="30" width="20" height="200" as="geometry" />
        </mxCell>
        <mxCell id="fzm851p_M25pBIHe-S2H-18" value="All in different grades" style="text;html=1;strokeColor=none;fillColor=none;align=center;verticalAlign=middle;whiteSpace=wrap;rounded=0;" vertex="1" parent="1">
          <mxGeometry x="860" y="115" width="60" height="30" as="geometry" />
        </mxCell>
        <mxCell id="fzm851p_M25pBIHe-S2H-26" value="&lt;h1&gt;Message replying&lt;/h1&gt;&lt;div&gt;When replying to an event if your kid is attending, the system lends itself so, that it is easier and therefore requires more effort to select only the relevant recipients&lt;/div&gt;&lt;div&gt;then replying to all people involved the the event. This leads to communication where parties get information not relevant or necessary for them.&lt;/div&gt;" style="text;html=1;strokeColor=none;fillColor=none;spacing=5;spacingTop=-20;whiteSpace=wrap;overflow=hidden;rounded=0;" vertex="1" parent="1">
          <mxGeometry x="900" y="280" width="200" height="230" as="geometry" />
        </mxCell>
        <mxCell id="fzm851p_M25pBIHe-S2H-27" value="Calendar" style="rounded=0;whiteSpace=wrap;html=1;" vertex="1" parent="1">
          <mxGeometry x="40" y="600" width="120" height="60" as="geometry" />
        </mxCell>
        <mxCell id="fzm851p_M25pBIHe-S2H-28" value="Week plan" style="rounded=0;whiteSpace=wrap;html=1;" vertex="1" parent="1">
          <mxGeometry x="440" y="400" width="120" height="60" as="geometry" />
        </mxCell>
        <mxCell id="fzm851p_M25pBIHe-S2H-36" style="edgeStyle=orthogonalEdgeStyle;rounded=0;orthogonalLoop=1;jettySize=auto;html=1;exitX=0.5;exitY=1;exitDx=0;exitDy=0;" edge="1" parent="1" source="fzm851p_M25pBIHe-S2H-29" target="fzm851p_M25pBIHe-S2H-35">
          <mxGeometry relative="1" as="geometry" />
        </mxCell>
        <mxCell id="fzm851p_M25pBIHe-S2H-37" style="edgeStyle=orthogonalEdgeStyle;rounded=0;orthogonalLoop=1;jettySize=auto;html=1;exitX=0.5;exitY=1;exitDx=0;exitDy=0;entryX=0.5;entryY=0;entryDx=0;entryDy=0;" edge="1" parent="1" source="fzm851p_M25pBIHe-S2H-29" target="fzm851p_M25pBIHe-S2H-28">
          <mxGeometry relative="1" as="geometry" />
        </mxCell>
        <mxCell id="fzm851p_M25pBIHe-S2H-29" value="Min Uddannelse" style="shape=process;whiteSpace=wrap;html=1;backgroundOutline=1;" vertex="1" parent="1">
          <mxGeometry x="360" y="280" width="120" height="60" as="geometry" />
        </mxCell>
        <mxCell id="fzm851p_M25pBIHe-S2H-31" value="Parent" style="text;html=1;strokeColor=none;fillColor=none;align=center;verticalAlign=middle;whiteSpace=wrap;rounded=0;" vertex="1" parent="1">
          <mxGeometry x="170" y="45" width="60" height="30" as="geometry" />
        </mxCell>
        <mxCell id="fzm851p_M25pBIHe-S2H-35" value="Schedule" style="rounded=0;whiteSpace=wrap;html=1;" vertex="1" parent="1">
          <mxGeometry x="280" y="400" width="120" height="60" as="geometry" />
        </mxCell>
        <mxCell id="fzm851p_M25pBIHe-S2H-39" value="Search" style="rounded=0;whiteSpace=wrap;html=1;" vertex="1" parent="1">
          <mxGeometry x="40" y="490" width="120" height="60" as="geometry" />
        </mxCell>
        <mxCell id="fzm851p_M25pBIHe-S2H-46" style="edgeStyle=orthogonalEdgeStyle;rounded=0;orthogonalLoop=1;jettySize=auto;html=1;exitX=0.5;exitY=1;exitDx=0;exitDy=0;" edge="1" parent="1" source="fzm851p_M25pBIHe-S2H-44" target="fzm851p_M25pBIHe-S2H-45">
          <mxGeometry relative="1" as="geometry" />
        </mxCell>
        <mxCell id="fzm851p_M25pBIHe-S2H-44" value="Facebook" style="rounded=0;whiteSpace=wrap;html=1;" vertex="1" parent="1">
          <mxGeometry x="360" y="40" width="120" height="60" as="geometry" />
        </mxCell>
        <mxCell id="fzm851p_M25pBIHe-S2H-45" value="Social events" style="rounded=1;whiteSpace=wrap;html=1;" vertex="1" parent="1">
          <mxGeometry x="360" y="130" width="120" height="60" as="geometry" />
        </mxCell>
      </root>
    </mxGraphModel>
  </diagram>
</mxfile>
